<svg width="30" height="30" viewBox="0 0 30 30" fill="none" xmlns="http://www.w3.org/2000/svg">
<g id="add-circle_svgrepo.com">
<path id="Vector" opacity="0.5" d="M27.5 15C27.5 21.9035 21.9035 27.5 15 27.5C8.09644 27.5 2.5 21.9035 2.5 15C2.5 8.09644 8.09644 2.5 15 2.5C21.9035 2.5 27.5 8.09644 27.5 15Z" fill="#D71E1E"/>
<path id="Vector_2" d="M15.9375 11.25C15.9375 10.7322 15.5177 10.3125 15 10.3125C14.4823 10.3125 14.0625 10.7322 14.0625 11.25V14.0625H11.25C10.7322 14.0625 10.3125 14.4823 10.3125 15C10.3125 15.5177 10.7322 15.9375 11.25 15.9375H14.0625V18.75C14.0625 19.2677 14.4823 19.6875 15 19.6875C15.5177 19.6875 15.9375 19.2677 15.9375 18.75V15.9375H18.75C19.2677 15.9375 19.6875 15.5177 19.6875 15C19.6875 14.4823 19.2677 14.0625 18.75 14.0625H15.9375V11.25Z" fill="white"/>
</g>
</svg>
